<?xml version="1.0" encoding="UTF-8" standalone="no"?>
<svg
   xmlns:dc="http://purl.org/dc/elements/1.1/"
   xmlns:cc="http://creativecommons.org/ns#"
   xmlns:rdf="http://www.w3.org/1999/02/22-rdf-syntax-ns#"
   xmlns:svg="http://www.w3.org/2000/svg"
   xmlns="http://www.w3.org/2000/svg"
   xmlns:sodipodi="http://sodipodi.sourceforge.net/DTD/sodipodi-0.dtd"
   xmlns:inkscape="http://www.inkscape.org/namespaces/inkscape"
   inkscape:version="1.0 (4035a4fb49, 2020-05-01)"
   sodipodi:docname="closeIcon.svg"
   width="256.0px"
   height="256.0px"
   viewBox="0 0 256.0 256.0"
   version="1.1"
   id="SVGRoot">
  <defs
     id="defs10" />
  <sodipodi:namedview
     inkscape:window-maximized="0"
     inkscape:window-y="36"
     inkscape:window-x="460"
     inkscape:window-height="1041"
     inkscape:window-width="1274"
     showgrid="true"
     inkscape:document-rotation="0"
     inkscape:current-layer="layer1"
     inkscape:document-units="px"
     inkscape:cy="105.34496"
     inkscape:cx="100.67254"
     inkscape:zoom="2.9545143"
     inkscape:pageshadow="2"
     inkscape:pageopacity="0.0"
     borderopacity="1.0"
     bordercolor="#666666"
     pagecolor="#ffffff"
     id="base">
    <inkscape:grid
       type="xygrid"
       id="grid19" />
  </sodipodi:namedview>
  <metadata
     id="metadata13">
    <rdf:RDF>
      <cc:Work
         rdf:about="">
        <dc:format>image/svg+xml</dc:format>
        <dc:type
           rdf:resource="http://purl.org/dc/dcmitype/StillImage" />
        <dc:title></dc:title>
      </cc:Work>
    </rdf:RDF>
  </metadata>
  <g
     id="layer1"
     inkscape:groupmode="layer"
     inkscape:label="Layer 1">
    <path
       d="m 159.40865,-150.44318 h 43.22158 c 8.864,0 16,7.136 16,16 v 268.88636 c 0,8.864 -7.136,16 -16,16 h -43.22158 c -8.864,0 -16,-7.136 -16,-16 v -268.88636 c 0,-8.864 7.136,-16 16,-16 z"
       transform="rotate(45)"
       style="fill:#000000;stroke-width:1.50444"
       id="rect30" />
    <path
       d="m -21.610794,30.576069 h 43.221588 c 8.864,0 16,7.136 16,16 V 315.46242 c 0,8.864 -7.136,16 -16,16 h -43.221588 c -8.864,0 -16,-7.136 -16,-16 V 46.576069 c 0,-8.864 7.136,-16 16,-16 z"
       transform="matrix(-0.70710678,0.70710678,0.70710678,0.70710678,0,0)"
       style="fill:#000000;stroke-width:1.50444"
       id="rect30-5" />
  </g>
</svg>
